#!OML:ASF F:\VICON\USERDATA\INSTALL\rory3\rory3.ASF
:FULLY-SPECIFIED
:DEGREES
5005
root 0.549904 18.9598 2.66705 -1.30155 7.76408 -7.15598
lowerback 5.61444 2.56269 -0.854032
upperback -0.943692 3.10386 -6.91514
thorax -3.79527 1.49475 -7.03648
lowerneck -15.3562 -7.8397 -9.92289
upperneck 1.16866 -9.986 19.0412
head 4.44682 -4.11375 6.69327
rclavicle -1.35174e-014 1.27222e-014
rhumerus 51.0779 -18.4371 -22.7232
rradius 48.2882
rwrist 36.0683
rhand -57.7977 373.101
rfingers 7.12502
rthumb -30.0528 -14.477
lclavicle -1.35174e-014 1.27222e-014
lhumerus -19.698 -11.1386 64.4393
lradius 49.1841
lwrist -3.00138
lhand -30.7765 18.7877
lfingers 7.12502
lthumb -4.06731 48.7286
rfemur 0.294445 12.1104 16.8402
rtibia 20.3915
rfoot -6.93974 -30.6979
rtoes -10.2979
lfemur -6.97424 -14.7119 -6.12135
ltibia 19.608
lfoot -10.6411 9.70454
ltoes -12.2231
5006
root 0.542873 18.9653 2.65992 -1.19945 7.65977 -7.20403
lowerback 5.64558 2.53012 -0.742383
upperback -0.955736 3.06865 -6.83012
thorax -3.82795 1.47457 -7.00856
lowerneck -15.2533 -7.83757 -9.95047
upperneck 1.01684 -9.96744 19.0968
head 4.38743 -4.11354 6.72074
rclavicle -1.59028e-015 5.08889e-014
rhumerus 51.7754 -19.7529 -23.6937
rradius 47.639
rwrist 35.3974
rhand -57.9098 373.199
rfingers 7.12502
rthumb -30.1598 -14.3592
lclavicle -1.59028e-015 5.08889e-014
lhumerus -19.748 -11.0995 64.4533
lradius 49.2589
lwrist -3.00724
lhand -30.9511 18.8599
lfingers 7.12502
lthumb -4.23597 48.7975
rfemur 0.258568 12.2943 16.9195
rtibia 20.2108
rfoot -7.0525 -30.8022
rtoes -10.4272
lfemur -6.88216 -14.8995 -6.02451
ltibia 19.2398
lfoot -10.5248 10.0398
ltoes -12.2019
5007
root 0.535412 18.9697 2.6504 -1.09802 7.54003 -7.17199
lowerback 5.66969 2.50447 -0.719759
upperback -0.955193 3.03681 -6.76242
thorax -3.84691 1.45827 -6.94746
lowerneck -15.0814 -7.8496 -9.92081
upperneck 0.828254 -9.97365 19.0988
head 4.30253 -4.13263 6.71963
rclavicle -3.93594e-014 8.26944e-014
rhumerus 52.6253 -21.0369 -24.9672
rradius 46.8973
rwrist 34.9552
rhand -58.1398 372.636
rfingers 7.12502
rthumb -30.3793 -14.8823
lclavicle -3.93594e-014 8.26944e-014
lhumerus -19.7122 -11.042 64.4839
lradius 49.2216
lwrist -2.98922
lhand -31.0957 18.8808
lfingers 7.12502
lthumb -4.3756 48.8156
rfemur 0.211859 12.4691 16.9036
rtibia 20.0225
rfoot -7.1348 -30.905
rtoes -10.4602
lfemur -6.78389 -15.0332 -6.02135
ltibia 18.8699
lfoot -10.3965 10.3782
ltoes -12.3361
5008
root 0.528753 18.9741 2.6405 -1.00633 7.47373 -6.9818
lowerback 5.70185 2.43865 -0.799802
upperback -0.896132 2.94475 -6.76296
thorax -3.81779 1.41524 -6.89386
lowerneck -15.0954 -7.84012 -9.88353
upperneck 0.749039 -9.95807 19.1356
head 4.27987 -4.12552 6.72712
rclavicle 1.39149e-014 -1.90833e-014
rhumerus 53.5561 -22.26 -26.4854
rradius 46.2956
rwrist 34.78
rhand -58.2548 372.122
rfingers 7.12502
rthumb -30.4889 -15.3751
lclavicle 1.39149e-014 -1.90833e-014
lhumerus -19.5982 -10.871 64.4417
lradius 49.1233
lwrist -3.00574
lhand -31.1017 18.9779
lfingers 7.12502
lthumb -4.38133 48.9126
rfemur 0.200132 12.522 16.7024
rtibia 19.8257
rfoot -7.20883 -30.9774
rtoes -10.5259
lfemur -6.70103 -15.1916 -6.20587
ltibia 18.5656
lfoot -10.2977 10.6489
ltoes -12.344
5009
root 0.52204 18.9769 2.63236 -0.922171 7.42356 -6.79591
lowerback 5.77743 2.36034 -0.901725
upperback -0.874062 2.83048 -6.74658
thorax -3.85593 1.35994 -6.81208
lowerneck -15.1778 -7.80171 -9.97001
upperneck 0.782953 -9.90087 19.2707
head 4.30966 -4.08674 6.79098
rclavicle 4.05521e-014 2.22639e-014
rhumerus 54.415 -23.3283 -27.8835
rradius 45.9095
rwrist 34.7011
rhand -58.015 371.969
rfingers 7.12502
rthumb -30.2602 -15.5709
lclavicle 4.05521e-014 2.22639e-014
lhumerus -19.6255 -10.7645 64.4166
lradius 49.1155
lwrist -2.9913
lhand -31.1056 18.9969
lfingers 7.12502
lthumb -4.38508 48.9315
rfemur 0.176536 12.5379 16.5081
rtibia 19.6635
rfoot -7.1324 -31.0514
rtoes -10.623
lfemur -6.63502 -15.3966 -6.37464
ltibia 18.3172
lfoot -10.2734 10.8672
ltoes -11.8262
5010
root 0.514979 18.9749 2.6211 -0.837274 7.34336 -6.7696
lowerback 5.90464 2.30632 -0.847477
upperback -0.901847 2.75651 -6.67532
thorax -3.96569 1.31994 -6.76929
lowerneck -15.1789 -7.78908 -9.99492
upperneck 0.745647 -9.87692 19.312
head 4.29953 -4.07488 6.81166
rclavicle -2.5842e-015 5.08889e-014
rhumerus 54.9914 -24.3403 -28.6426
rradius 45.5713
rwrist 34.1281
rhand -57.9112 370.643
rfingers 7.12502
rthumb -30.1611 -16.915
lclavicle -2.5842e-015 5.08889e-014
lhumerus -19.6989 -10.7467 64.4442
lradius 49.1488
lwrist -2.94299
lhand -30.9255 18.8914
lfingers 7.12502
lthumb -4.21116 48.8296
rfemur 0.119394 12.5376 16.4835
rtibia 19.5113
rfoot -7.089 -31.1458
rtoes -10.6312
lfemur -6.61323 -15.604 -6.34805
ltibia 18.1193
lfoot -10.3163 11.0654
ltoes -11.1422
5011
root 0.502974 18.9741 2.60005 -0.642398 7.32869 -6.89669
lowerback 6.00536 2.21568 -0.639968
upperback -0.938657 2.64752 -6.57336
thorax -4.06808 1.25932 -6.77685
lowerneck -15.2151 -7.79169 -9.96647
upperneck 0.667156 -9.87378 19.3391
head 4.28224 -4.07307 6.81549
rclavicle 1.86858e-014 6.36111e-015
rhumerus 55.5817 -25.3338 -29.361
rradius 45.2716
rwrist 33.4219
rhand -57.8103 369.396
rfingers 7.12502
rthumb -30.0649 -18.1791
lclavicle 1.86858e-014 6.36111e-015
lhumerus -19.6671 -10.7605 64.4552
lradius 49.1292
lwrist -2.82118
lhand -30.8847 18.8906
lfingers 7.12502
lthumb -4.17181 48.8295
rfemur -0.0746321 12.6135 16.6322
rtibia 19.3473
rfoot -7.35177 -31.3442
rtoes -10.7851
lfemur -6.84667 -15.8123 -6.07448
ltibia 17.9766
lfoot -10.354 11.266
ltoes -10.6077
5012
root 0.491222 18.9757 2.57753 -0.411396 7.35506 -6.84229
lowerback 6.06381 2.09715 -0.601094
upperback -0.986532 2.48722 -6.55141
thorax -4.16829 1.17603 -6.76711
lowerneck -15.1736 -7.7654 -9.9513
upperneck 0.604402 -9.84567 19.469
head 4.26178 -4.05838 6.85979
rclavicle 3.83654e-014 2.54444e-014
rhumerus 56.2462 -26.1689 -30.4383
rradius 45.1543
rwrist 32.8728
rhand -57.5599 369.861
rfingers 7.12502
rthumb -29.826 -17.7579
lclavicle 3.83654e-014 2.54444e-014
lhumerus -19.7253 -10.7967 64.4046
lradius 49.0908
lwrist -2.71451
lhand -31.183 18.89
lfingers 7.12502
lthumb -4.45983 48.823
rfemur -0.290618 12.6758 16.5737
rtibia 19.1922
rfoot -7.53161 -31.5161
rtoes -11.187
lfemur -7.10556 -15.9468 -6.00289
ltibia 17.8477
lfoot -10.3613 11.402
ltoes -10.1334
5013
root 0.481589 18.9766 2.56219 -0.311608 7.28108 -6.78145
lowerback 6.16303 2.01046 -0.573845
upperback -1.03366 2.36757 -6.50887
thorax -4.28763 1.11309 -6.73392
lowerneck -15.0855 -7.7011 -10.0086
upperneck 0.661656 -9.77378 19.5997
head 4.26648 -4.02107 6.92266
rclavicle -3.97569e-016 -3.18055e-015
rhumerus 56.8632 -26.7679 -31.3067
rradius 44.9928
rwrist 32.065
rhand -57.7471 370.417
rfingers 7.12502
rthumb -30.0046 -17.169
lclavicle -3.97569e-016 -3.18055e-015
lhumerus -20.0184 -10.9085 64.3739
lradius 49.1849
lwrist -2.69342
lhand -31.4145 18.8951
lfingers 7.12502
lthumb -4.68341 48.8233
rfemur -0.370916 12.737 16.5263
rtibia 19.0669
rfoot -7.63445 -31.5755
rtoes -11.3573
lfemur -7.12982 -16.1763 -6.00704
ltibia 17.6754
lfoot -10.3205 11.7035
ltoes -10.1124
5014
root 0.473579 18.9781 2.55155 -0.283476 7.07547 -6.70285
lowerback 6.27705 1.95943 -0.572846
upperback -1.01647 2.29852 -6.41436
thorax -4.34528 1.07857 -6.63175
lowerneck -15.253 -7.67992 -9.98856
upperneck 0.857257 -9.75476 19.4578
head 4.33768 -4.00218 6.87144
rclavicle 7.35503e-015 -1.59028e-014
rhumerus 57.6501 -27.2081 -32.1344
rradius 44.7562
rwrist 31.215
rhand -57.8902 369.936
rfingers 7.12502
rthumb -30.1411 -17.6255
lclavicle 7.35503e-015 -1.59028e-014
lhumerus -20.3089 -10.823 64.4278
lradius 49.3595
lwrist -2.66365
lhand -31.2989 18.8833
lfingers 7.12502
lthumb -4.5718 48.814
rfemur -0.383132 12.7957 16.4702
rtibia 18.9668
rfoot -7.63764 -31.551
rtoes -11.5851
lfemur -6.98122 -16.4751 -6.07173
ltibia 17.4448
lfoot -10.3248 12.1586
ltoes -9.97797
5015
root 0.465224 18.9767 2.54237 -0.221641 6.82086 -6.58282
lowerback 6.24846 1.92958 -0.606876
upperback -0.925254 2.26515 -6.32911
thorax -4.24163 1.06663 -6.51172
lowerneck -15.5527 -7.68683 -9.96277
upperneck 1.06085 -9.7653 19.2988
head 4.43583 -3.99124 6.80756
rclavicle -4.57205e-015 4.77083e-014
rhumerus 58.5238 -27.7152 -33.2588
rradius 44.6696
rwrist 30.9372
rhand -57.9349 369.928
rfingers 7.12502
rthumb -30.1838 -17.6257
lclavicle -4.57205e-015 4.77083e-014
lhumerus -20.2986 -10.6939 64.5026
lradius 49.3584
lwrist -2.46814
lhand -31.1986 19.2176
lfingers 7.12502
lthumb -4.47494 49.1503
rfemur -0.43184 12.8997 16.3615
rtibia 18.8667
rfoot -7.73278 -31.5598
rtoes -11.8183
lfemur -6.83477 -16.7583 -6.17538
ltibia 17.212
lfoot -10.4589 12.5831
ltoes -9.32837
5016
root 0.455828 18.9738 2.53093 -0.139501 6.5961 -6.47304
lowerback 6.21496 1.91159 -0.596391
upperback -0.82391 2.25003 -6.29556
thorax -4.11907 1.06259 -6.47407
lowerneck -15.7711 -7.69696 -9.99936
upperneck 1.10251 -9.76914 19.3599
head 4.49101 -3.97753 6.82918
rclavicle -3.1408e-014 5.725e-014
rhumerus 59.0637 -28.382 -34.0765
rradius 44.7535
rwrist 30.4473
rhand -58.0068 370.142
rfingers 7.12502
rthumb -30.2523 -17.3991
lclavicle -3.1408e-014 5.725e-014
lhumerus -20.1301 -10.6355 64.5387
lradius 49.2337
lwrist -2.33232
lhand -31.2797 19.6288
lfingers 7.12502
lthumb -4.55321 49.5599
rfemur -0.509547 12.9534 16.247
rtibia 18.7588
rfoot -7.80476 -31.5325
rtoes -11.7995
lfemur -6.78088 -16.9527 -6.25766
ltibia 17.0306
lfoot -10.5095 13.0209
ltoes -9.48714
5017
root 0.443906 18.9701 2.51607 -0.0319651 6.3957 -6.4372
lowerback 6.22295 1.87821 -0.570598
upperback -0.793909 2.21049 -6.23866
thorax -4.09748 1.04348 -6.42326
lowerneck -15.8685 -7.67286 -9.94025
upperneck 1.13981 -9.74791 19.3726
head 4.5131 -3.95977 6.82415
rclavicle -3.47873e-014 3.49861e-014
rhumerus 59.3672 -28.8787 -34.6172
rradius 45.0318
rwrist 29.5739
rhand -57.9546 370.443
rfingers 7.12502
rthumb -30.2026 -17.1071
lclavicle -3.47873e-014 3.49861e-014
lhumerus -20.0879 -10.6585 64.5666
lradius 49.089
lwrist -2.27587
lhand -31.3724 19.7049
lfingers 7.12502
lthumb -4.64272 49.634
rfemur -0.6552 13.0486 16.2226
rtibia 18.6584
rfoot -8.00956 -31.5496
rtoes -11.9665
lfemur -6.83772 -17.0967 -6.2177
ltibia 16.9305
lfoot -10.5713 13.3905
ltoes -9.83825
